<svg xmlns="http://www.w3.org/2000/svg" viewBox="0 0 521.94 522"><path d="M514.13,324.13C479.27,464,337.66,549.05,197.81,514.19s-224.87-176.48-190-316.3S184.27-27,324.07,7.81,549,184.31,514.12,324.13Z" fill="#f7931a"/><path d="M376.05 223.82c5.19-34.73-21.25-53.4-57.41-65.85l11.73-47-28.63-7.13-11.42 45.8q-11.44-2.81-22.94-5.4l11.5-46.11L250.25 91l-11.72 47-18.29-4.3v-.15l-39.49-9.86-7.62 30.59 20.8 5.17c11.6 2.89 13.69 10.57 13.34 16.65l-13.36 53.6a24 24 0 0 1 3 .95l-3-.75-18.74 75.1c-1.42 3.52-5 8.81-13.13 6.8.29.42-20.81-5.19-20.81-5.19L127 339.35l37.27 9.3 20.41 5.26-11.84 47.59 28.61 7.13 11.73-47.08 22.82 5.93-11.7 46.85 28.63 7.14L264.79 374c48.83 9.24 85.55 5.51 101-38.65 12.45-35.56-.62-56.07-26.32-69.46 18.71-4.32 32.81-16.63 36.57-42.05zm-65.44 91.74c-8.85 35.56-68.72 16.35-88.14 11.52l15.73-63c19.41 4.81 81.66 14.4 72.41 51.48zm8.86-92.24c-8.08 32.33-57.91 15.9-74.08 11.87L259.65 178c16.17 4 68.23 11.54 59.82 45.29z" fill="#fff"/></svg>