<svg xmlns="http://www.w3.org/2000/svg" viewBox="0 0 546.33 91.33"><defs><style>.cls-1{fill:none;}.cls-2{fill:#fff;}.cls-3{fill:#fea622;}</style></defs><title>btc-compass_logo</title><g id="Vrstva_2" data-name="Vrstva 2"><g id="Vrstva_1-2" data-name="Vrstva 1"><rect class="cls-1" width="546.33" height="91.33"/><path class="cls-2" d="M38.35,75.5a31,31,0,0,1-4.23-.3L38.35,84l4.22-8.81A30.94,30.94,0,0,1,38.35,75.5Z"/><path class="cls-2" d="M76.69,45.67l-8.82-4.23a28.95,28.95,0,0,1,0,8.45Z"/><path class="cls-2" d="M8.51,45.67a29.45,29.45,0,0,1,.31-4.23L0,45.67l8.82,4.22A29.42,29.42,0,0,1,8.51,45.67Z"/><path class="cls-2" d="M38.35,22.83A22.84,22.84,0,1,1,15.51,45.67,22.86,22.86,0,0,1,38.35,22.83m0-5A27.84,27.84,0,1,0,66.18,45.67,27.83,27.83,0,0,0,38.35,17.83Z"/><path class="cls-3" d="M92.41,24.33h20.9q6.16,0,9.24,2.89t3.08,8.27A11.24,11.24,0,0,1,124.38,41a8.61,8.61,0,0,1-3.5,3.5,9,9,0,0,1,4.68,3.11,9.83,9.83,0,0,1,1.61,6q0,6-3.37,9c-2.25,2-5.48,3-9.72,3H92.41Zm19.3,17.12q5.83,0,5.84-5.26a5.33,5.33,0,0,0-1.45-4.13q-1.44-1.32-5-1.32h-10V41.45ZM112,59.28c2.22,0,3.84-.46,4.84-1.38s1.51-2.49,1.51-4.71a5.1,5.1,0,0,0-1.57-4.14c-1-.87-2.83-1.31-5.36-1.31H101.06V59.28Z"/><path class="cls-3" d="M133.45,41.65H128.9l.77-6.42h12.44v30.4h-8.66Zm-.71-18.79h9.43v6.79h-9.43Z"/><path class="cls-3" d="M152.14,63.58q-2.56-2.7-2.56-7.57V41.9h-4.3V35.23h4.3V28.69l8.66-2.56v9.1h7.69l-.51,6.67h-7.18V55.43a4.29,4.29,0,0,0,1.12,3.4,5.52,5.52,0,0,0,3.62,1,11.67,11.67,0,0,0,3.72-.65v6a18.23,18.23,0,0,1-6.8,1.15C156.44,66.27,153.85,65.38,152.14,63.58Z"/><path class="cls-3" d="M172.86,62.23q-4.34-4-4.33-11.8t4.55-11.83q4.56-4,12.51-4a29.18,29.18,0,0,1,5.51.45,18.77,18.77,0,0,1,4.49,1.48v6.22a18.91,18.91,0,0,0-8.27-1.67q-5.07,0-7.54,2.11c-1.64,1.42-2.46,3.83-2.46,7.25s.78,5.68,2.34,7.15,4.09,2.22,7.6,2.22a18.8,18.8,0,0,0,8.4-1.8v6.41a26,26,0,0,1-10.33,1.86Q177.19,66.27,172.86,62.23Z"/><path class="cls-3" d="M198.49,50.43q0-7.69,4.07-11.77T215,34.59q8.34,0,12.44,4.07t4.11,11.77q0,15.84-16.55,15.84T198.49,50.43ZM221,57c1.18-1.28,1.76-3.46,1.76-6.54s-.58-5.26-1.76-6.54S217.8,42,215,42s-4.75.64-5.93,1.92-1.76,3.46-1.76,6.54.59,5.26,1.76,6.54,3.15,1.93,5.93,1.93S219.79,58.26,221,57Z"/><path class="cls-3" d="M239,41.65h-4.55l.77-6.42h12.44v30.4H239Zm-.7-18.79h9.43v6.79h-9.43Z"/><path class="cls-3" d="M253.57,35.23h8l.32,2.89a17.9,17.9,0,0,1,4.87-2.53,17.28,17.28,0,0,1,5.84-1c4,0,6.89.93,8.76,2.79s2.78,4.78,2.78,8.76V65.63h-8.65v-19c0-2.09-.43-3.56-1.29-4.39s-2.39-1.25-4.61-1.25a9.83,9.83,0,0,0-4,.87,10.72,10.72,0,0,0-3.4,2.27V65.63h-8.66Z"/><path class="cls-2" d="M301.41,60.72q-5.58-5.53-5.58-15.35,0-10.4,5.42-16t15.94-5.64a35.73,35.73,0,0,1,12.31,2v7.57a30.33,30.33,0,0,0-11.67-2.25q-7,0-10.1,3.5t-3.11,10.81q0,6.85,3.3,10.23T318,59a30.21,30.21,0,0,0,11.6-2.18v7.63a39.49,39.49,0,0,1-12.31,1.86Q307,66.27,301.41,60.72Z"/><path class="cls-2" d="M332.39,50.43q0-7.69,4.07-11.77t12.41-4.07q8.34,0,12.44,4.07t4.11,11.77q0,15.84-16.55,15.84T332.39,50.43ZM354.87,57q1.75-1.92,1.76-6.54t-1.76-6.54q-1.77-1.92-6-1.92c-2.78,0-4.75.64-5.93,1.92s-1.76,3.46-1.76,6.54.58,5.26,1.76,6.54,3.15,1.93,5.93,1.93S353.69,58.26,354.87,57Z"/><path class="cls-2" d="M369.93,35.23h8l.32,3a16.87,16.87,0,0,1,10.39-3.59,10.66,10.66,0,0,1,4.87.93,6.65,6.65,0,0,1,2.82,2.79,17.71,17.71,0,0,1,5-2.76,18.78,18.78,0,0,1,6.25-1c3.51,0,6.09.91,7.76,2.73s2.5,4.58,2.5,8.3v20h-8.53v-19a6,6,0,0,0-1.28-4.29,5.43,5.43,0,0,0-4.1-1.35,8.73,8.73,0,0,0-3.5.74,8.83,8.83,0,0,0-2.92,2,9.18,9.18,0,0,1,.32,2.63v19.3h-8.08v-19a7.15,7.15,0,0,0-1-4.29c-.69-.9-1.9-1.35-3.66-1.35q-3.27,0-6.67,3.27V65.63h-8.53Z"/><path class="cls-2" d="M423.62,35.23h7.5l.45,2.82A14.53,14.53,0,0,1,436,35.46a16,16,0,0,1,5.52-.87q6.86,0,10.39,3.72t3.53,11.74c0,5.38-1.27,9.44-3.79,12.15s-6.07,4.07-10.64,4.07A15.83,15.83,0,0,1,432.27,64V79.48h-8.65Zm21.06,22.29q2-2.4,2-7.41t-1.8-7c-1.19-1.43-3.12-2.15-5.77-2.15a9.39,9.39,0,0,0-6.8,2.76V57.61a11.83,11.83,0,0,0,3,1.74,10,10,0,0,0,3.56.57A7.11,7.11,0,0,0,444.68,57.52Z"/><path class="cls-2" d="M461.5,63.8a8.36,8.36,0,0,1-3.11-6.95,8.86,8.86,0,0,1,3.24-7.22Q464.87,47,471,47h9v-.83a5.72,5.72,0,0,0-.68-3,4,4,0,0,0-2.37-1.6,17.72,17.72,0,0,0-4.84-.51,31.46,31.46,0,0,0-10,1.6V36.52a26.29,26.29,0,0,1,5.3-1.42,39.43,39.43,0,0,1,6.51-.51q14.36,0,14.36,11.74v19.3h-7.5l-.45-2.76q-3.72,3.41-11,3.4A12,12,0,0,1,461.5,63.8Zm15-4.16a9.16,9.16,0,0,0,3.43-2.47V52.36h-8.79q-5.07,0-5.07,4.16c0,2.7,1.84,4,5.52,4A12.28,12.28,0,0,0,476.51,59.64Z"/><path class="cls-2" d="M498.16,65.82a22.23,22.23,0,0,1-5-1.22V57.42a22.14,22.14,0,0,0,4.94,1.38,31.83,31.83,0,0,0,5.32.48,16.64,16.64,0,0,0,4.59-.42,1.64,1.64,0,0,0,1.25-1.69,2,2,0,0,0-1.15-1.8,28,28,0,0,0-4.43-1.67c-.64-.17-1.45-.42-2.44-.77a16.93,16.93,0,0,1-6.57-3.52,7.75,7.75,0,0,1-2.08-5.78,7.76,7.76,0,0,1,3.23-6.73q3.24-2.31,10.17-2.31a33.89,33.89,0,0,1,5.16.39,25.38,25.38,0,0,1,4.4,1v7.12a17.93,17.93,0,0,0-3.92-1.22,21.46,21.46,0,0,0-4.23-.45,18,18,0,0,0-4.55.42c-1,.28-1.48.82-1.48,1.64a1.75,1.75,0,0,0,1.06,1.63,26.11,26.11,0,0,0,4.07,1.44l2.12.65a25.22,25.22,0,0,1,5.71,2.4,7.62,7.62,0,0,1,2.85,3A9.87,9.87,0,0,1,518,57a7.85,7.85,0,0,1-3.4,6.89q-3.4,2.34-10.07,2.34A44.28,44.28,0,0,1,498.16,65.82Z"/><path class="cls-2" d="M526.45,65.82a22.13,22.13,0,0,1-5-1.22V57.42a22,22,0,0,0,4.94,1.38,31.74,31.74,0,0,0,5.32.48,16.74,16.74,0,0,0,4.59-.42,1.64,1.64,0,0,0,1.25-1.69,2,2,0,0,0-1.16-1.8A27.76,27.76,0,0,0,532,53.7c-.65-.17-1.46-.42-2.44-.77A16.86,16.86,0,0,1,523,49.41a7.76,7.76,0,0,1-2.09-5.78,7.74,7.74,0,0,1,3.24-6.73q3.24-2.31,10.16-2.31a33.92,33.92,0,0,1,5.17.39,25.26,25.26,0,0,1,4.39,1v7.12a17.83,17.83,0,0,0-3.91-1.22,21.62,21.62,0,0,0-4.23-.45,18.08,18.08,0,0,0-4.56.42c-1,.28-1.47.82-1.47,1.64a1.74,1.74,0,0,0,1.06,1.63,25.72,25.72,0,0,0,4.07,1.44l2.11.65a25,25,0,0,1,5.71,2.4,7.58,7.58,0,0,1,2.86,3,10,10,0,0,1,.86,4.43,7.82,7.82,0,0,1-3.4,6.89q-3.39,2.34-10.07,2.34A44.28,44.28,0,0,1,526.45,65.82Z"/><path class="cls-3" d="M45.88,44.39a4.2,4.2,0,0,0,2.33-4.58c-.31-3.22-3.09-4.3-6.61-4.61V30.73H38.88v4.35l-2.18,0V30.73H34V35.2l-1.73,0H28.49v2.9s2,0,2,0A1.4,1.4,0,0,1,32,39.3V51.55a1,1,0,0,1-1,.9s-2,0-2,0l-.54,3.25H32l1.95,0v4.52H36.7V55.76c.75,0,1.47,0,2.18,0v4.46H41.6V55.72c4.58-.26,7.79-1.41,8.19-5.71C50.11,46.55,48.48,45,45.88,44.39Zm-9.11-6.08c1.53,0,6.37-.49,6.37,2.72s-4.83,2.71-6.37,2.71Zm0,14.16v-6c1.84,0,7.63-.53,7.63,3S38.61,52.47,36.77,52.47Z"/><path class="cls-3" d="M38.35,15.83a29.77,29.77,0,0,1,8,1.1L38.35,0l-8,16.93A29.79,29.79,0,0,1,38.35,15.83Z"/></g></g></svg>